<?xml version="1.0" encoding="UTF-8"?>
<svg xmlns="http://www.w3.org/2000/svg" xmlns:xlink="http://www.w3.org/1999/xlink" width="40pt" height="40pt" viewBox="0 0 40 40" version="1.1">
<g id="surface1">
<path style=" stroke:none;fill-rule:nonzero;fill:rgb(29.019608%,73.72549%,58.823529%);fill-opacity:1;" d="M 40 20 C 40 31.046875 31.046875 40 20 40 C 8.953125 40 0 31.046875 0 20 C 0 8.953125 8.953125 0 20 0 C 31.046875 0 40 8.953125 40 20 Z M 40 20 "/>
<path style=" stroke:none;fill-rule:nonzero;fill:rgb(100%,100%,100%);fill-opacity:1;" d="M 28.582031 17.5625 C 24.910156 17.5625 21.238281 17.5625 17.566406 17.5625 C 18.5 16.628906 19.4375 15.691406 20.375 14.753906 C 22.53125 12.597656 19.167969 9.257812 17.003906 11.421875 C 14.722656 13.703125 12.441406 15.984375 10.164062 18.265625 C 9.246094 19.183594 9.269531 20.707031 10.179688 21.617188 C 12.460938 23.898438 14.742188 26.179688 17.023438 28.460938 C 19.183594 30.617188 22.519531 27.253906 20.355469 25.089844 C 19.425781 24.160156 18.496094 23.230469 17.566406 22.300781 C 21.226562 22.300781 24.886719 22.300781 28.550781 22.300781 C 31.609375 22.300781 31.636719 17.5625 28.582031 17.5625 Z M 28.582031 17.5625 "/>
</g>
</svg>
